# xmcd
#
# Track frame offsets:
#	150
#	13305
#	25137
#	38357
#	51207
#	63565
#	74447
#	83079
#	93645
#	108747
#	121940
#	132800
#	151192
#	180977
#	207232
#	230437
#	245607
#	261267
#	273915
#	289570
#
# Disc length: 4280 seconds
#
# Revision: 7
# Processed by: cddbd v1.5.2PL0 Copyright (c) Steve Scherf et al.
# Submitted via: EZCDAudioConverter 2.8.0.1
#
DISCID=1510b614
DTITLE=Intruders - Cowboys To Girls- Best of
DYEAR=1995
DGENRE=Blues
TTITLE0=A Love That's Real
TTITLE1=Cowboys To Girls
TTITLE2=Together
TTITLE3=We'll Be United
TTITLE4=Love Is Like A Baseball Game
TTITLE5=Slow Drag
TTITLE6=Sad Girl
TTITLE7=Me Tarzan, You Jane
TTITLE8=When We Get Married
TTITLE9=Friends No More
TTITLE10=(Win, Place, Or Show) She's A Winner
TTITLE11=Mother And Child Reunion
TTITLE12=I'll Always Love My Mama
TTITLE13=I Wanna Know Your Name
TTITLE14=Teardrops
TTITLE15=Hang On In There
TTITLE16=A Nice Girl Like You
TTITLE17=Plain Old Fashioned Girl
TTITLE18=To Be Happy Is The Real Thing
TTITLE19=Save The Children
EXTD=
EXTT0=
EXTT1=
EXTT2=
EXTT3=
EXTT4=
EXTT5=
EXTT6=
EXTT7=
EXTT8=
EXTT9=
EXTT10=
EXTT11=
EXTT12=
EXTT13=
EXTT14=
EXTT15=
EXTT16=
EXTT17=
EXTT18=
EXTT19=
PLAYORDER=
